<svg width="59" height="46" viewBox="0 0 59 46" fill="none" xmlns="http://www.w3.org/2000/svg">
<g filter="url(#filter0_d_1_22)">
<path d="M47.0745 3.28961C43.7561 1.76699 40.1976 0.645196 36.477 0.00269521C36.4093 -0.00970486 36.3416 0.0212836 36.3067 0.0832619C35.849 0.89723 35.3421 1.95912 34.9871 2.79376C30.9853 2.19465 27.0041 2.19465 23.0844 2.79376C22.7294 1.94057 22.204 0.89723 21.7443 0.0832619C21.7094 0.0233515 21.6417 -0.00763696 21.574 0.00269521C17.8554 0.643143 14.297 1.76494 10.9765 3.28961C10.9478 3.30201 10.9231 3.32269 10.9068 3.34952C4.15711 13.4334 2.30809 23.2694 3.21516 32.9835C3.21926 33.031 3.24594 33.0765 3.28288 33.1054C7.73612 36.3757 12.0498 38.3611 16.2835 39.6771C16.3512 39.6978 16.423 39.673 16.4661 39.6172C17.4676 38.2496 18.3603 36.8076 19.1257 35.2911C19.1709 35.2023 19.1278 35.0969 19.0355 35.0618C17.6195 34.5247 16.2711 33.8697 14.9742 33.126C14.8716 33.0661 14.8634 32.9194 14.9577 32.8491C15.2307 32.6446 15.5037 32.4318 15.7643 32.217C15.8114 32.1777 15.8771 32.1694 15.9326 32.1942C24.4532 36.0844 33.6778 36.0844 42.0979 32.1942C42.1533 32.1674 42.219 32.1757 42.2682 32.2149C42.5289 32.4298 42.8019 32.6446 43.0768 32.8491C43.1712 32.9194 43.1651 33.0661 43.0625 33.126C41.7655 33.8842 40.4172 34.5247 38.9991 35.0597C38.9068 35.0949 38.8657 35.2023 38.9109 35.2911C39.6927 36.8054 40.5855 38.2475 41.5684 39.6151C41.6095 39.673 41.6834 39.6978 41.7511 39.6771C46.0053 38.3611 50.319 36.3757 54.7722 33.1054C54.8112 33.0765 54.8359 33.033 54.84 32.9855C55.9255 21.755 53.0217 11.9997 47.1422 3.35158C47.1278 3.32269 47.1032 3.30201 47.0745 3.28961ZM20.3981 27.0686C17.8329 27.0686 15.7191 24.7135 15.7191 21.8211C15.7191 18.9288 17.7919 16.5737 20.3981 16.5737C23.0249 16.5737 25.1182 18.9495 25.0771 21.8211C25.0771 24.7135 23.0044 27.0686 20.3981 27.0686ZM37.698 27.0686C35.1328 27.0686 33.0191 24.7135 33.0191 21.8211C33.0191 18.9288 35.0917 16.5737 37.698 16.5737C40.3248 16.5737 42.418 18.9495 42.3771 21.8211C42.3771 24.7135 40.3248 27.0686 37.698 27.0686Z" fill="white"/>
</g>
<defs>
<filter id="filter0_d_1_22" x="0.0162356" y="0" width="58.0316" height="45.6519" filterUnits="userSpaceOnUse" color-interpolation-filters="sRGB">
<feFlood flood-opacity="0" result="BackgroundImageFix"/>
<feColorMatrix in="SourceAlpha" type="matrix" values="0 0 0 0 0 0 0 0 0 0 0 0 0 0 0 0 0 0 127 0" result="hardAlpha"/>
<feOffset dy="2.98376"/>
<feGaussianBlur stdDeviation="1.49188"/>
<feComposite in2="hardAlpha" operator="out"/>
<feColorMatrix type="matrix" values="0 0 0 0 1 0 0 0 0 1 0 0 0 0 1 0 0 0 0.12 0"/>
<feBlend mode="normal" in2="BackgroundImageFix" result="effect1_dropShadow_1_22"/>
<feBlend mode="normal" in="SourceGraphic" in2="effect1_dropShadow_1_22" result="shape"/>
</filter>
</defs>
</svg>
