<svg width="89" height="80" viewBox="0 0 89 80" fill="none" xmlns="http://www.w3.org/2000/svg">
<g filter="url(#filter0_d_1_19)">
<path d="M69.4634 20.7585C67.6435 21.5656 65.6877 22.1111 63.6349 22.3565C65.7302 21.1005 67.3392 19.1118 68.0969 16.7422C66.1362 17.905 63.9643 18.7495 61.6528 19.2047C59.8016 17.2325 57.1642 16 54.2455 16C48.641 16 44.0972 20.5436 44.0972 26.1478C44.0972 26.9431 44.1871 27.7177 44.3601 28.4604C35.926 28.0372 28.4485 23.9971 23.4434 17.8576C22.5699 19.3564 22.0694 21.0996 22.0694 22.9593C22.0694 26.48 23.8611 29.5861 26.5841 31.4059C24.9205 31.3532 23.3558 30.8967 21.9875 30.1367C21.9868 30.179 21.9868 30.2215 21.9868 30.2642C21.9868 35.1811 25.4848 39.2827 30.1272 40.2148C29.2755 40.4467 28.3791 40.5707 27.4534 40.5707C26.7996 40.5707 26.1638 40.5072 25.5443 40.3887C26.8356 44.4204 30.5833 47.3543 35.0239 47.4363C31.5509 50.158 27.1752 51.7803 22.4208 51.7803C21.6017 51.7803 20.7939 51.7324 20 51.6387C24.4909 54.5179 29.8252 56.1978 35.556 56.1978C54.2218 56.1978 64.429 40.7346 64.429 27.3245C64.429 26.8845 64.4192 26.4469 64.3997 26.0117C66.3822 24.581 68.1028 22.7936 69.4634 20.7585Z" fill="#F0F0F0"/>
</g>
<defs>
<filter id="filter0_d_1_19" x="0.975611" y="0.780489" width="87.5122" height="78.2465" filterUnits="userSpaceOnUse" color-interpolation-filters="sRGB">
<feFlood flood-opacity="0" result="BackgroundImageFix"/>
<feColorMatrix in="SourceAlpha" type="matrix" values="0 0 0 0 0 0 0 0 0 0 0 0 0 0 0 0 0 0 127 0" result="hardAlpha"/>
<feOffset dy="3.80488"/>
<feGaussianBlur stdDeviation="9.51219"/>
<feComposite in2="hardAlpha" operator="out"/>
<feColorMatrix type="matrix" values="0 0 0 0 1 0 0 0 0 1 0 0 0 0 1 0 0 0 0.15 0"/>
<feBlend mode="normal" in2="BackgroundImageFix" result="effect1_dropShadow_1_19"/>
<feBlend mode="normal" in="SourceGraphic" in2="effect1_dropShadow_1_19" result="shape"/>
</filter>
</defs>
</svg>
